<svg width="166" height="290" viewBox="0 0 166 290" fill="none" xmlns="http://www.w3.org/2000/svg">
<path fill-rule="evenodd" clip-rule="evenodd" d="M-2 0H166V191H-2V0Z" fill="#4AF6CD"/>
<path d="M58.22 155.36C58.22 152.2 58.68 149.42 59.6 147.02C60.52 144.58 61.9 142.4 63.74 140.48L69.62 145.46C67.34 148.34 66.2 151.36 66.2 154.52C66.2 156.16 66.52 157.42 67.16 158.3C67.76 159.14 68.62 159.56 69.74 159.56C70.54 159.56 71.2 159.34 71.72 158.9C72.24 158.46 72.74 157.72 73.22 156.68C73.7 155.64 74.3 154 75.02 151.76C76.38 147.48 78.1 144.36 80.18 142.4C82.22 140.4 85.06 139.4 88.7 139.4C91.34 139.4 93.68 140.08 95.72 141.44C97.72 142.8 99.28 144.78 100.4 147.38C101.52 149.94 102.08 152.96 102.08 156.44C102.08 163.08 100.06 168.5 96.02 172.7L89.96 167.24C92.68 163.92 94.04 160.46 94.04 156.86C94.04 154.98 93.64 153.52 92.84 152.48C92 151.44 90.9 150.92 89.54 150.92C88.58 150.92 87.8 151.12 87.2 151.52C86.56 151.92 86 152.64 85.52 153.68C85 154.68 84.44 156.16 83.84 158.12C82.36 162.84 80.58 166.16 78.5 168.08C76.42 170 73.8 170.96 70.64 170.96C68.16 170.96 65.98 170.3 64.1 168.98C62.22 167.62 60.78 165.76 59.78 163.4C58.74 161 58.22 158.32 58.22 155.36ZM87.02 101.955C89.9 101.955 92.48 102.595 94.76 103.875C97.04 105.115 98.84 106.995 100.16 109.515C101.44 112.035 102.08 115.115 102.08 118.755C102.08 124.275 100.74 128.455 98.06 131.295C95.34 134.135 91.66 135.555 87.02 135.555H59.3V124.455H86.66C89.18 124.455 91.04 124.015 92.24 123.135C93.4 122.215 93.98 120.755 93.98 118.755C93.98 116.755 93.38 115.315 92.18 114.435C90.98 113.555 89.14 113.115 86.66 113.115H59.3V101.955H87.02ZM85.64 81.9477V85.0077H101V96.1077H59.3V81.6477C59.3 75.7677 60.36 71.3877 62.48 68.5077C64.6 65.5877 67.86 64.1277 72.26 64.1277C74.9 64.1277 77.1 64.7477 78.86 65.9877C80.62 67.1877 82.2 69.1277 83.6 71.8077L101 61.4277V73.7877L85.64 81.9477ZM78.08 85.0077V81.2877C78.08 77.4477 76.14 75.5277 72.26 75.5277C70.46 75.5277 69.14 76.0677 68.3 77.1477C67.46 78.1877 67.04 79.7677 67.04 81.8877V85.0077H78.08ZM101 58.9006H59.3V33.2806L67.16 34.4206V47.8006H77.18V36.0406H85.04V47.8006H101V58.9006Z" fill="white"/>
<path d="M58.22 267.92C58.22 262.36 59.98 257.58 63.5 253.58L69.2 259.04C68.12 260.56 67.34 261.94 66.86 263.18C66.34 264.38 66.08 265.76 66.08 267.32C66.08 270.32 67.24 272.68 69.56 274.4C71.88 276.08 75.42 276.92 80.18 276.92C83.66 276.92 86.42 276.64 88.46 276.08C90.46 275.52 91.9 274.68 92.78 273.56C93.66 272.4 94.1 270.92 94.1 269.12C94.1 267.32 93.72 265.68 92.96 264.2H84.38V268.94L76.76 270.02V253.46H97.52C98.96 255.62 100.08 258.06 100.88 260.78C101.68 263.5 102.08 266.18 102.08 268.82C102.08 281.86 94.76 288.38 80.12 288.38C75.56 288.38 71.64 287.5 68.36 285.74C65.04 283.94 62.52 281.5 60.8 278.42C59.08 275.34 58.22 271.84 58.22 267.92ZM58.22 230.335C58.22 224.295 60.14 219.595 63.98 216.235C67.82 212.875 73.2 211.195 80.12 211.195C84.64 211.195 88.56 211.955 91.88 213.475C95.16 214.955 97.68 217.135 99.44 220.015C101.2 222.895 102.08 226.335 102.08 230.335C102.08 236.375 100.16 241.075 96.32 244.435C92.48 247.755 87.08 249.415 80.12 249.415C75.6 249.415 71.7 248.675 68.42 247.195C65.14 245.675 62.62 243.495 60.86 240.655C59.1 237.775 58.22 234.335 58.22 230.335ZM66.2 230.335C66.2 232.935 67.28 234.855 69.44 236.095C71.6 237.295 75.16 237.895 80.12 237.895C85.08 237.895 88.66 237.275 90.86 236.035C93.02 234.795 94.1 232.895 94.1 230.335C94.1 227.695 93.02 225.775 90.86 224.575C88.7 223.375 85.12 222.775 80.12 222.775C75.16 222.775 71.6 223.375 69.44 224.575C67.28 225.775 66.2 227.695 66.2 230.335Z" fill="white"/>
<rect x="81" y="201" width="20" height="1" transform="rotate(-90 81 201)" fill="white"/>
</svg>
